{"title":"La Bamba 1987 DVD9rip English Klam","uid":5879888,"size":1789057772,"categoryP":"video","categoryS":"movies","magnet":"?xt=urn:btih:2c6dd3f417fdceb81a17d93f970d9a4357afc723&amp;dn=La+Bamba+1987+DVD9rip+English+Klam&amp;tr=udp%3A%2F%2Ftracker.openbittorrent.com%3A80&amp;tr=udp%3A%2F%2Fopen.demonii.com%3A1337&amp;tr=udp%3A%2F%2Ftracker.coppersurfer.tk%3A6969&amp;tr=udp%3A%2F%2Fexodus.desync.com%3A6969","seeders":7,"leechers":0,"uploader":"Klambake","files":-1,"time":1286785684,"description":"With: Lou Diamond Phillips, Esai Morales en Rosanna DeSoto\n\nThis is the true story Ritchie Valens a young rock &amp; roll singer who tragically died in an aircrash at the age of 17. The film follows Ritchie from his days in Paicoma, California where he in and his family makes a meagre living working at plantations to his rise as a star. The film also focus on Richies friendship and rivalry with his older brother Bob and his relationship with Donna, his girlfriend.\n &lt;a href=&quot;\nhttp://www.imdb.com/title/&quot; rel=&quot;nofollow&quot; target=&quot;_NEW&quot;&gt;\nhttp://www.imdb.com/title/&lt;/a&gt;\thttp://bayimg.com/\n\nGeneral:\n\nComplete name                    : Klambake\\La Bamba\\La Bamba.avi\nFormat                           : AVI\nFormat/Info                      : Audio Video Interleave\nFile size                        : 1.67 GiB\nDuration                         : 1h 44mn\nOverall bit rate                 : 2 288 Kbps\n\nVideo:\n\nFormat                           : MPEG-4 Visual\nFormat profile                   : Simple@L3\nFormat settings, BVOP            : No\nFormat settings, QPel            : No\nFormat settings, GMC             : No warppoints\nFormat settings, Matrix          : Default (H.263)\nCodec ID                         : XVID\nCodec ID/Hint                    : XviD\nDuration                         : 1h 44mn\nBit rate                         : 1 829 Kbps\nWidth                            : 720 pixels\nHeight                           : 576 pixels\nDisplay aspect ratio             : 5:4\nFrame rate                       : 25.000 fps\nStandard                         : PAL\nColor space                      : YUV\nChroma subsampling               : 4:2:0\nBit depth                        : 8 bits\nScan type                        : Progressive\nBits/(Pixel*Frame)               : 0.176\nStream size                      : 1.33 GiB (80%)\nWriting library                  : XviD 1.1.2 (UTC 2006-11-01)\n\nAudio:\n\nFormat                           : AC-3\nFormat/Info                      : Audio Coding 3\nMode extension                   : CM (complete main)\nCodec ID                         : 2000\nDuration                         : 1h 44mn\nBit rate mode                    : Constant\nBit rate                         : 448 Kbps\nChannel(s)                       : 6 channels\nChannel positions                : Front: L C R, Side: L R, LFE\nSampling rate                    : 48.0 KHz\nBit depth                        : 16 bits\nStream size                      : 334 MiB (20%)\nAlignment                        : Aligned on interleaves\nInterleave, duration             : 32 ms (0.80 video frame)\nInterleave, preload duration     : 32 ms","torrent":{"xt":"urn:btih:2c6dd3f417fdceb81a17d93f970d9a4357afc723","amp;dn":"La+Bamba+1987+DVD9rip+English+Klam","amp;tr":["udp%3A%2F%2Ftracker.openbittorrent.com%3A80","udp%3A%2F%2Fopen.demonii.com%3A1337","udp%3A%2F%2Ftracker.coppersurfer.tk%3A6969","udp%3A%2F%2Fexodus.desync.com%3A6969"],"infoHash":"2c6dd3f417fdceb81a17d93f970d9a4357afc723","infoHashBuffer":{"type":"Buffer","data":[44,109,211,244,23,253,206,184,26,23,217,63,151,13,154,67,87,175,199,35]},"announce":[],"urlList":[]}}